<svg xmlns="http://www.w3.org/2000/svg" viewBox="0 0 449 449.71"><defs><style>.cls-1{fill:#d1a119;}.cls-2{fill:#fff;}</style></defs><title>Asset 5</title><g id="Layer_2" data-name="Layer 2"><g id="logo_testing_1" data-name="logo testing 1"><g id="Layer_3" data-name="Layer 3"><ellipse class="cls-1" cx="224.5" cy="224.86" rx="224.5" ry="224.86"/><circle class="cls-2" cx="224.4" cy="223.91" r="102.5"/><rect class="cls-2" x="155.87" y="76.73" width="5" height="60" transform="translate(-32 91.49) rotate(-29.4)"/><rect class="cls-2" x="287.93" y="311.09" width="5" height="60" transform="translate(-130.04 186.51) rotate(-29.4)"/><rect class="cls-2" x="338.26" y="127.99" width="5" height="63" transform="translate(312.42 -215.68) rotate(60.6)"/><rect class="cls-2" x="104.78" y="258.55" width="5" height="65" transform="translate(308.18 54.71) rotate(60.6)"/><rect class="cls-2" x="253.05" y="64.78" width="5" height="60.94" transform="translate(35.03 -65.21) rotate(15.6)"/><rect class="cls-2" x="92" y="162.04" width="4.97" height="65.18" transform="translate(-118.38 233.3) rotate(-74.4)"/><rect class="cls-2" x="348.19" y="234.26" width="5" height="63.77" transform="translate(0.05 532.35) rotate(-74.4)"/><rect class="cls-2" x="186.29" y="320.9" width="5" height="63.77" transform="translate(101.82 -37.77) rotate(15.6)"/></g></g></g></svg>