<svg xmlns="http://www.w3.org/2000/svg" viewBox="0 0 449 449.71"><defs><style>.cls-1{fill:#cbb8a9;}.cls-2{fill:#fff;}</style></defs><title>Asset 11</title><g id="Layer_2" data-name="Layer 2"><g id="logo_testing_1" data-name="logo testing 1"><g id="Layer_3" data-name="Layer 3"><ellipse class="cls-1" cx="224.5" cy="224.86" rx="224.5" ry="224.86"/><path class="cls-2" d="M322,305.16c9,39-46.57,36-96,36s-108,1-96-36c18.79-57.94,46.57-125,96-125S308.31,245.81,322,305.16Z"/><ellipse class="cls-2" cx="119.5" cy="202.16" rx="29.97" ry="42.62" transform="translate(-74.96 70.5) rotate(-25.31)"/><ellipse class="cls-2" cx="333.5" cy="199.16" rx="42.87" ry="29.57" transform="translate(7.46 410.31) rotate(-63.77)"/><ellipse class="cls-2" cx="276.93" cy="141.36" rx="41.84" ry="31.05" transform="translate(45.44 348.94) rotate(-68.93)"/><ellipse class="cls-2" cx="180.5" cy="141.16" rx="31.02" ry="41.86" transform="translate(-38.86 74.92) rotate(-21.22)"/><path class="cls-2" d="M241,306.16c0,29-31.11,43-59,43s-60.46-15.77-52-43.5c9-29.5,22.61-52.5,50.5-52.5S241,277.16,241,306.16Z"/><path class="cls-2" d="M323,305.66c6,28.37-23.11,43.5-51,43.5s-58-15-58-44,30.61-52,58.5-52S317,277.16,323,305.66Z"/></g></g></g></svg>