<svg xmlns="http://www.w3.org/2000/svg" viewBox="0 0 449 449.71"><defs><style>.cls-1{fill:#cc571d;}.cls-2{fill:#fff;}</style></defs><title>Asset 8</title><g id="Layer_2" data-name="Layer 2"><g id="logo_testing_1" data-name="logo testing 1"><g id="Layer_3" data-name="Layer 3"><ellipse class="cls-1" cx="224.5" cy="224.86" rx="224.5" ry="224.86"/><rect class="cls-2" x="129.83" y="129.16" width="188.35" height="208" rx="12.88"/><rect class="cls-2" x="117" y="115.16" width="211" height="50" rx="13.78"/><path class="cls-1" d="M218.27,195c15.37,10.79,11.08,32.53,3.61,36.95s-28.88-2.25-30.65-21c-1.73-18.35-4.89-29.63-5.33-39.87C185.54,162.88,200.25,182.32,218.27,195Z"/><path class="cls-1" d="M271.12,246.2c-3.72,17.31-23.68,22.95-32.16,17.71s-11.54-24.67,1.45-36.68c12.69-11.74,23.66-13.91,30.34-20.94C279.86,196.7,275.19,227.25,271.12,246.2Z"/><path class="cls-1" d="M210.89,247.17c14.73,10.26,13.68,31.12,6,36.94S189,285.2,183,268.26c-6.48-18.27-4.17-26.94-9.13-37C169.87,223.27,193.26,234.88,210.89,247.17Z"/></g></g></g></svg>