<svg xmlns="http://www.w3.org/2000/svg" viewBox="0 0 449 449.71"><defs><style>.cls-1{fill:#92bda3;}.cls-2{fill:#fff;}</style></defs><title>Asset 6</title><g id="Layer_2" data-name="Layer 2"><g id="logo_testing_1" data-name="logo testing 1"><g id="Layer_3" data-name="Layer 3"><ellipse class="cls-1" cx="224.5" cy="224.86" rx="224.5" ry="224.86"/><path class="cls-2" d="M186,302.17c21.48,65.31-13.5,85-37.13,85s-52-17.51-30.87-82c20-61,20.47-48.36,25-71C151,194.17,161,226.17,186,302.17Z"/><path class="cls-2" d="M378,251.17c16.4,37.56-14.3,76-31.94,76s-46.83-37.78-32-76c16-41,18.69-59.31,28.26-75C349.05,165.17,357.47,204.17,378,251.17Z"/><path class="cls-2" d="M275,124.17c21.42,43.63-7.94,90-35,90s-53.35-37.26-40-84c14-49,26.86-68.34,40-92C245,29.17,248,69.17,275,124.17Z"/><path class="cls-2" d="M268.69,314.67c9.16,20.38-8.63,42.5-19.27,42.5s-27.38-21.41-19.27-42.5c8.65-22.5,17.83-29.09,19.27-42.5C250.6,261.17,257.68,290.17,268.69,314.67Z"/><path class="cls-2" d="M139.52,132.17c8.78,20.5-2.65,45-15.43,45S93,156.62,100.94,135.67c8.58-22.5,15.48-21.83,20.58-38.5C125.8,83.17,125.8,100.17,139.52,132.17Z"/></g></g></g></svg>